<?xml version="1.0" encoding="UTF-8"?>
<svg xmlns="http://www.w3.org/2000/svg" viewBox="0 0 1320 760" width="1320" height="760" style="background:#06060f;font-family:'Consolas','Space Grotesk',monospace">
<defs>
<linearGradient id="gt" x1="0" y1="0" x2="1" y2="0">
  <stop offset="0" stop-color="#00ff9d"/><stop offset="1" stop-color="#38bdf8"/>
</linearGradient>
<filter id="glow"><feGaussianBlur stdDeviation="3" result="b"/><feMerge><feMergeNode in="b"/><feMergeNode in="SourceGraphic"/></feMerge></filter>
</defs>
<text x="28" y="40" font-size="22" font-weight="bold" fill="url(#gt)" font-family="'Consolas','Space Grotesk',monospace">MENTAL PERFORMANCE OS · DIGITAL PRODUCT PIPELINE (11 PRODUCTS)</text>
<line x1="0" y1="0" x2="0" y2="760" stroke="rgba(255,255,255,0.03)" stroke-width="1"/><line x1="40" y1="0" x2="40" y2="760" stroke="rgba(255,255,255,0.03)" stroke-width="1"/><line x1="80" y1="0" x2="80" y2="760" stroke="rgba(255,255,255,0.03)" stroke-width="1"/><line x1="120" y1="0" x2="120" y2="760" stroke="rgba(255,255,255,0.03)" stroke-width="1"/><line x1="160" y1="0" x2="160" y2="760" stroke="rgba(255,255,255,0.03)" stroke-width="1"/><line x1="200" y1="0" x2="200" y2="760" stroke="rgba(255,255,255,0.03)" stroke-width="1"/><line x1="240" y1="0" x2="240" y2="760" stroke="rgba(255,255,255,0.03)" stroke-width="1"/><line x1="280" y1="0" x2="280" y2="760" stroke="rgba(255,255,255,0.03)" stroke-width="1"/><line x1="320" y1="0" x2="320" y2="760" stroke="rgba(255,255,255,0.03)" stroke-width="1"/><line x1="360" y1="0" x2="360" y2="760" stroke="rgba(255,255,255,0.03)" stroke-width="1"/><line x1="400" y1="0" x2="400" y2="760" stroke="rgba(255,255,255,0.03)" stroke-width="1"/><line x1="440" y1="0" x2="440" y2="760" stroke="rgba(255,255,255,0.03)" stroke-width="1"/><line x1="480" y1="0" x2="480" y2="760" stroke="rgba(255,255,255,0.03)" stroke-width="1"/><line x1="520" y1="0" x2="520" y2="760" stroke="rgba(255,255,255,0.03)" stroke-width="1"/><line x1="560" y1="0" x2="560" y2="760" stroke="rgba(255,255,255,0.03)" stroke-width="1"/><line x1="600" y1="0" x2="600" y2="760" stroke="rgba(255,255,255,0.03)" stroke-width="1"/><line x1="640" y1="0" x2="640" y2="760" stroke="rgba(255,255,255,0.03)" stroke-width="1"/><line x1="680" y1="0" x2="680" y2="760" stroke="rgba(255,255,255,0.03)" stroke-width="1"/><line x1="720" y1="0" x2="720" y2="760" stroke="rgba(255,255,255,0.03)" stroke-width="1"/><line x1="760" y1="0" x2="760" y2="760" stroke="rgba(255,255,255,0.03)" stroke-width="1"/><line x1="800" y1="0" x2="800" y2="760" stroke="rgba(255,255,255,0.03)" stroke-width="1"/><line x1="840" y1="0" x2="840" y2="760" stroke="rgba(255,255,255,0.03)" stroke-width="1"/><line x1="880" y1="0" x2="880" y2="760" stroke="rgba(255,255,255,0.03)" stroke-width="1"/><line x1="920" y1="0" x2="920" y2="760" stroke="rgba(255,255,255,0.03)" stroke-width="1"/><line x1="960" y1="0" x2="960" y2="760" stroke="rgba(255,255,255,0.03)" stroke-width="1"/><line x1="1000" y1="0" x2="1000" y2="760" stroke="rgba(255,255,255,0.03)" stroke-width="1"/><line x1="1040" y1="0" x2="1040" y2="760" stroke="rgba(255,255,255,0.03)" stroke-width="1"/><line x1="1080" y1="0" x2="1080" y2="760" stroke="rgba(255,255,255,0.03)" stroke-width="1"/><line x1="1120" y1="0" x2="1120" y2="760" stroke="rgba(255,255,255,0.03)" stroke-width="1"/><line x1="1160" y1="0" x2="1160" y2="760" stroke="rgba(255,255,255,0.03)" stroke-width="1"/><line x1="1200" y1="0" x2="1200" y2="760" stroke="rgba(255,255,255,0.03)" stroke-width="1"/><line x1="1240" y1="0" x2="1240" y2="760" stroke="rgba(255,255,255,0.03)" stroke-width="1"/><line x1="1280" y1="0" x2="1280" y2="760" stroke="rgba(255,255,255,0.03)" stroke-width="1"/><line x1="0" y1="0" x2="1320" y2="0" stroke="rgba(255,255,255,0.03)" stroke-width="1"/><line x1="0" y1="40" x2="1320" y2="40" stroke="rgba(255,255,255,0.03)" stroke-width="1"/><line x1="0" y1="80" x2="1320" y2="80" stroke="rgba(255,255,255,0.03)" stroke-width="1"/><line x1="0" y1="120" x2="1320" y2="120" stroke="rgba(255,255,255,0.03)" stroke-width="1"/><line x1="0" y1="160" x2="1320" y2="160" stroke="rgba(255,255,255,0.03)" stroke-width="1"/><line x1="0" y1="200" x2="1320" y2="200" stroke="rgba(255,255,255,0.03)" stroke-width="1"/><line x1="0" y1="240" x2="1320" y2="240" stroke="rgba(255,255,255,0.03)" stroke-width="1"/><line x1="0" y1="280" x2="1320" y2="280" stroke="rgba(255,255,255,0.03)" stroke-width="1"/><line x1="0" y1="320" x2="1320" y2="320" stroke="rgba(255,255,255,0.03)" stroke-width="1"/><line x1="0" y1="360" x2="1320" y2="360" stroke="rgba(255,255,255,0.03)" stroke-width="1"/><line x1="0" y1="400" x2="1320" y2="400" stroke="rgba(255,255,255,0.03)" stroke-width="1"/><line x1="0" y1="440" x2="1320" y2="440" stroke="rgba(255,255,255,0.03)" stroke-width="1"/><line x1="0" y1="480" x2="1320" y2="480" stroke="rgba(255,255,255,0.03)" stroke-width="1"/><line x1="0" y1="520" x2="1320" y2="520" stroke="rgba(255,255,255,0.03)" stroke-width="1"/><line x1="0" y1="560" x2="1320" y2="560" stroke="rgba(255,255,255,0.03)" stroke-width="1"/><line x1="0" y1="600" x2="1320" y2="600" stroke="rgba(255,255,255,0.03)" stroke-width="1"/><line x1="0" y1="640" x2="1320" y2="640" stroke="rgba(255,255,255,0.03)" stroke-width="1"/><line x1="0" y1="680" x2="1320" y2="680" stroke="rgba(255,255,255,0.03)" stroke-width="1"/><line x1="0" y1="720" x2="1320" y2="720" stroke="rgba(255,255,255,0.03)" stroke-width="1"/><text x="1292" y="40" font-size="10.5" fill="#8a8aa3" text-anchor="end" font-family="'Consolas','Space Grotesk',monospace">subhankarcloud.in · GitHub Pages · portfolio repo (master)</text><rect x="60" y="120" width="230" height="110" rx="10" fill="rgba(255,255,255,0.04)" stroke="#38bdf8" stroke-width="1.6"/>
<text x="175.0" y="146" font-size="14" font-weight="bold" fill="#38bdf8" text-anchor="middle" font-family="'Consolas','Space Grotesk',monospace">NEUROSCIENCE RESEARCH</text>
<text x="175.0" y="165" font-size="10.5" fill="#8a8aa3" text-anchor="middle" font-family="'Consolas','Space Grotesk',monospace">12 concepts · PMIDs</text><rect x="340" y="120" width="230" height="110" rx="10" fill="rgba(255,255,255,0.04)" stroke="#38bdf8" stroke-width="1.6"/>
<text x="455.0" y="146" font-size="14" font-weight="bold" fill="#38bdf8" text-anchor="middle" font-family="'Consolas','Space Grotesk',monospace">CONTENT DOCS</text>
<text x="455.0" y="165" font-size="10.5" fill="#8a8aa3" text-anchor="middle" font-family="'Consolas','Space Grotesk',monospace">challenge · prompts · guides</text><rect x="620" y="120" width="280" height="110" rx="10" fill="rgba(255,255,255,0.04)" stroke="#8b5cf6" stroke-width="1.6"/>
<text x="760.0" y="146" font-size="14" font-weight="bold" fill="#8b5cf6" text-anchor="middle" font-family="'Consolas','Space Grotesk',monospace">product_pdf_lib.py</text>
<text x="760.0" y="165" font-size="10.5" fill="#8a8aa3" text-anchor="middle" font-family="'Consolas','Space Grotesk',monospace">shared PDF brand system</text><rect x="950" y="120" width="300" height="110" rx="10" fill="rgba(255,255,255,0.04)" stroke="#8b5cf6" stroke-width="1.6"/>
<text x="1100.0" y="146" font-size="14" font-weight="bold" fill="#8b5cf6" text-anchor="middle" font-family="'Consolas','Space Grotesk',monospace">PDFs (13)</text>
<text x="1100.0" y="165" font-size="10.5" fill="#8a8aa3" text-anchor="middle" font-family="'Consolas','Space Grotesk',monospace">aurora theme · Syne + Space Grotesk</text><defs><marker id="m72022" markerWidth="9" markerHeight="9" refX="8" refY="3" orient="auto"><polygon points="0,0 9,3 0,6" fill="#38bdf8"/></marker></defs>
<line x1="290" y1="175" x2="332.0" y2="175.0" stroke="#38bdf8" stroke-width="1.8" marker-end="url(#m72022)"/>
<defs><marker id="m99422" markerWidth="9" markerHeight="9" refX="8" refY="3" orient="auto"><polygon points="0,0 9,3 0,6" fill="#38bdf8"/></marker></defs>
<line x1="570" y1="175" x2="612.0" y2="175.0" stroke="#38bdf8" stroke-width="1.8" marker-end="url(#m99422)"/>
<defs><marker id="m29834" markerWidth="9" markerHeight="9" refX="8" refY="3" orient="auto"><polygon points="0,0 9,3 0,6" fill="#8b5cf6"/></marker></defs>
<line x1="900" y1="175" x2="942.0" y2="175.0" stroke="#8b5cf6" stroke-width="1.8" marker-end="url(#m29834)"/>
<rect x="60" y="310" width="230" height="110" rx="10" fill="rgba(255,255,255,0.04)" stroke="#00ff9d" stroke-width="1.6"/>
<text x="175.0" y="336" font-size="14" font-weight="bold" fill="#00ff9d" text-anchor="middle" font-family="'Consolas','Space Grotesk',monospace">build_landing_pages.py</text>
<text x="175.0" y="355" font-size="10.5" fill="#8a8aa3" text-anchor="middle" font-family="'Consolas','Space Grotesk',monospace">aurora glassmorphism</text><rect x="340" y="310" width="230" height="110" rx="10" fill="rgba(255,255,255,0.04)" stroke="#00ff9d" stroke-width="1.6"/>
<text x="455.0" y="336" font-size="14" font-weight="bold" fill="#00ff9d" text-anchor="middle" font-family="'Consolas','Space Grotesk',monospace">11 HTML PAGES</text>
<text x="455.0" y="355" font-size="10.5" fill="#8a8aa3" text-anchor="middle" font-family="'Consolas','Space Grotesk',monospace">OS + 10 spin-offs + hub</text><rect x="620" y="310" width="280" height="110" rx="10" fill="rgba(255,255,255,0.04)" stroke="#fbbf24" stroke-width="1.6"/>
<text x="760.0" y="336" font-size="14" font-weight="bold" fill="#fbbf24" text-anchor="middle" font-family="'Consolas','Space Grotesk',monospace">gumroad-link-* CTAs</text>
<text x="760.0" y="355" font-size="10.5" fill="#8a8aa3" text-anchor="middle" font-family="'Consolas','Space Grotesk',monospace">46 buttons · ids wired</text><rect x="950" y="310" width="300" height="110" rx="10" fill="rgba(255,255,255,0.04)" stroke="#38bdf8" stroke-width="1.6"/>
<text x="1100.0" y="336" font-size="14" font-weight="bold" fill="#38bdf8" text-anchor="middle" font-family="'Consolas','Space Grotesk',monospace">GIT PUSH · portfolio</text>
<text x="1100.0" y="355" font-size="10.5" fill="#8a8aa3" text-anchor="middle" font-family="'Consolas','Space Grotesk',monospace">master branch</text><defs><marker id="m66719" markerWidth="9" markerHeight="9" refX="8" refY="3" orient="auto"><polygon points="0,0 9,3 0,6" fill="#00ff9d"/></marker></defs>
<line x1="290" y1="365" x2="332.0" y2="365.0" stroke="#00ff9d" stroke-width="1.8" marker-end="url(#m66719)"/>
<defs><marker id="m10422" markerWidth="9" markerHeight="9" refX="8" refY="3" orient="auto"><polygon points="0,0 9,3 0,6" fill="#00ff9d"/></marker></defs>
<line x1="570" y1="365" x2="612.0" y2="365.0" stroke="#00ff9d" stroke-width="1.8" marker-end="url(#m10422)"/>
<defs><marker id="m93279" markerWidth="9" markerHeight="9" refX="8" refY="3" orient="auto"><polygon points="0,0 9,3 0,6" fill="#fbbf24"/></marker></defs>
<line x1="900" y1="365" x2="942.0" y2="365.0" stroke="#fbbf24" stroke-width="1.8" marker-end="url(#m93279)"/>
<rect x="60" y="500" width="520" height="110" rx="10" fill="rgba(255,255,255,0.04)" stroke="#00ff9d" stroke-width="1.6" filter="url(#glow)"/>
<text x="320.0" y="526" font-size="14" font-weight="bold" fill="#00ff9d" text-anchor="middle" font-family="'Consolas','Space Grotesk',monospace">GITHUB PAGES + CUSTOM DOMAIN</text>
<text x="320.0" y="545" font-size="10.5" fill="#8a8aa3" text-anchor="middle" font-family="'Consolas','Space Grotesk',monospace">subhankarcloud.in · DNS A-records</text><rect x="620" y="500" width="630" height="110" rx="10" fill="rgba(255,255,255,0.04)" stroke="#38bdf8" stroke-width="1.6" filter="url(#glow)"/>
<text x="935.0" y="526" font-size="14" font-weight="bold" fill="#38bdf8" text-anchor="middle" font-family="'Consolas','Space Grotesk',monospace">VERIFIED LIVE · 25/25 URLs (200)</text>
<text x="935.0" y="545" font-size="10.5" fill="#8a8aa3" text-anchor="middle" font-family="'Consolas','Space Grotesk',monospace">products hub filters · OS cross-links both ways</text><defs><marker id="m1294" markerWidth="9" markerHeight="9" refX="8" refY="3" orient="auto"><polygon points="0,0 9,3 0,6" fill="#00ff9d"/></marker></defs>
<line x1="660" y1="420" x2="660.0" y2="492.0" stroke="#00ff9d" stroke-width="1.8" marker-end="url(#m1294)"/>
<text x="660.0" y="452.0" font-size="10.5" fill="#00ff9d" text-anchor="middle" font-family="'Consolas','Space Grotesk',monospace">deploy</text><defs><marker id="m26283" markerWidth="9" markerHeight="9" refX="8" refY="3" orient="auto"><polygon points="0,0 9,3 0,6" fill="#38bdf8"/></marker></defs>
<line x1="1150" y1="420" x2="1150.0" y2="492.0" stroke="#38bdf8" stroke-width="1.8" marker-end="url(#m26283)"/>
<text x="1150.0" y="452.0" font-size="10.5" fill="#38bdf8" text-anchor="middle" font-family="'Consolas','Space Grotesk',monospace">audit</text><rect x="60" y="660" width="520" height="70" rx="10" fill="rgba(255,255,255,0.04)" stroke="#8b5cf6" stroke-width="1.6"/>
<text x="320.0" y="686" font-size="14" font-weight="bold" fill="#8b5cf6" text-anchor="middle" font-family="'Consolas','Space Grotesk',monospace">MONK MODE · spin-off #10 (Notion)</text>
<text x="320.0" y="705" font-size="10.5" fill="#8a8aa3" text-anchor="middle" font-family="'Consolas','Space Grotesk',monospace">gold accent · same family</text><rect x="620" y="660" width="630" height="70" rx="10" fill="rgba(255,255,255,0.04)" stroke="#fbbf24" stroke-width="1.6"/>
<text x="935.0" y="686" font-size="14" font-weight="bold" fill="#fbbf24" text-anchor="middle" font-family="'Consolas','Space Grotesk',monospace">PDF BRAND FAMILY · top bar + footer + OS upsell page</text>
<text x="935.0" y="705" font-size="10.5" fill="#8a8aa3" text-anchor="middle" font-family="'Consolas','Space Grotesk',monospace">every product sells the OS</text></svg>
