<?xml version="1.0" encoding="UTF-8"?>
<svg xmlns="http://www.w3.org/2000/svg" viewBox="0 0 1320 820" width="1320" height="820" style="background:#06060f;font-family:'Consolas','Space Grotesk',monospace">
<defs>
<linearGradient id="gt" x1="0" y1="0" x2="1" y2="0">
  <stop offset="0" stop-color="#00ff9d"/><stop offset="1" stop-color="#38bdf8"/>
</linearGradient>
<filter id="glow"><feGaussianBlur stdDeviation="3" result="b"/><feMerge><feMergeNode in="b"/><feMergeNode in="SourceGraphic"/></feMerge></filter>
</defs>
<text x="28" y="40" font-size="22" font-weight="bold" fill="url(#gt)" font-family="'Consolas','Space Grotesk',monospace">PROJECT GEO-SPATIAL · FAMILY VENTURE WORKFLOW</text>
<line x1="0" y1="0" x2="0" y2="820" stroke="rgba(255,255,255,0.03)" stroke-width="1"/><line x1="40" y1="0" x2="40" y2="820" stroke="rgba(255,255,255,0.03)" stroke-width="1"/><line x1="80" y1="0" x2="80" y2="820" stroke="rgba(255,255,255,0.03)" stroke-width="1"/><line x1="120" y1="0" x2="120" y2="820" stroke="rgba(255,255,255,0.03)" stroke-width="1"/><line x1="160" y1="0" x2="160" y2="820" stroke="rgba(255,255,255,0.03)" stroke-width="1"/><line x1="200" y1="0" x2="200" y2="820" stroke="rgba(255,255,255,0.03)" stroke-width="1"/><line x1="240" y1="0" x2="240" y2="820" stroke="rgba(255,255,255,0.03)" stroke-width="1"/><line x1="280" y1="0" x2="280" y2="820" stroke="rgba(255,255,255,0.03)" stroke-width="1"/><line x1="320" y1="0" x2="320" y2="820" stroke="rgba(255,255,255,0.03)" stroke-width="1"/><line x1="360" y1="0" x2="360" y2="820" stroke="rgba(255,255,255,0.03)" stroke-width="1"/><line x1="400" y1="0" x2="400" y2="820" stroke="rgba(255,255,255,0.03)" stroke-width="1"/><line x1="440" y1="0" x2="440" y2="820" stroke="rgba(255,255,255,0.03)" stroke-width="1"/><line x1="480" y1="0" x2="480" y2="820" stroke="rgba(255,255,255,0.03)" stroke-width="1"/><line x1="520" y1="0" x2="520" y2="820" stroke="rgba(255,255,255,0.03)" stroke-width="1"/><line x1="560" y1="0" x2="560" y2="820" stroke="rgba(255,255,255,0.03)" stroke-width="1"/><line x1="600" y1="0" x2="600" y2="820" stroke="rgba(255,255,255,0.03)" stroke-width="1"/><line x1="640" y1="0" x2="640" y2="820" stroke="rgba(255,255,255,0.03)" stroke-width="1"/><line x1="680" y1="0" x2="680" y2="820" stroke="rgba(255,255,255,0.03)" stroke-width="1"/><line x1="720" y1="0" x2="720" y2="820" stroke="rgba(255,255,255,0.03)" stroke-width="1"/><line x1="760" y1="0" x2="760" y2="820" stroke="rgba(255,255,255,0.03)" stroke-width="1"/><line x1="800" y1="0" x2="800" y2="820" stroke="rgba(255,255,255,0.03)" stroke-width="1"/><line x1="840" y1="0" x2="840" y2="820" stroke="rgba(255,255,255,0.03)" stroke-width="1"/><line x1="880" y1="0" x2="880" y2="820" stroke="rgba(255,255,255,0.03)" stroke-width="1"/><line x1="920" y1="0" x2="920" y2="820" stroke="rgba(255,255,255,0.03)" stroke-width="1"/><line x1="960" y1="0" x2="960" y2="820" stroke="rgba(255,255,255,0.03)" stroke-width="1"/><line x1="1000" y1="0" x2="1000" y2="820" stroke="rgba(255,255,255,0.03)" stroke-width="1"/><line x1="1040" y1="0" x2="1040" y2="820" stroke="rgba(255,255,255,0.03)" stroke-width="1"/><line x1="1080" y1="0" x2="1080" y2="820" stroke="rgba(255,255,255,0.03)" stroke-width="1"/><line x1="1120" y1="0" x2="1120" y2="820" stroke="rgba(255,255,255,0.03)" stroke-width="1"/><line x1="1160" y1="0" x2="1160" y2="820" stroke="rgba(255,255,255,0.03)" stroke-width="1"/><line x1="1200" y1="0" x2="1200" y2="820" stroke="rgba(255,255,255,0.03)" stroke-width="1"/><line x1="1240" y1="0" x2="1240" y2="820" stroke="rgba(255,255,255,0.03)" stroke-width="1"/><line x1="1280" y1="0" x2="1280" y2="820" stroke="rgba(255,255,255,0.03)" stroke-width="1"/><line x1="0" y1="0" x2="1320" y2="0" stroke="rgba(255,255,255,0.03)" stroke-width="1"/><line x1="0" y1="40" x2="1320" y2="40" stroke="rgba(255,255,255,0.03)" stroke-width="1"/><line x1="0" y1="80" x2="1320" y2="80" stroke="rgba(255,255,255,0.03)" stroke-width="1"/><line x1="0" y1="120" x2="1320" y2="120" stroke="rgba(255,255,255,0.03)" stroke-width="1"/><line x1="0" y1="160" x2="1320" y2="160" stroke="rgba(255,255,255,0.03)" stroke-width="1"/><line x1="0" y1="200" x2="1320" y2="200" stroke="rgba(255,255,255,0.03)" stroke-width="1"/><line x1="0" y1="240" x2="1320" y2="240" stroke="rgba(255,255,255,0.03)" stroke-width="1"/><line x1="0" y1="280" x2="1320" y2="280" stroke="rgba(255,255,255,0.03)" stroke-width="1"/><line x1="0" y1="320" x2="1320" y2="320" stroke="rgba(255,255,255,0.03)" stroke-width="1"/><line x1="0" y1="360" x2="1320" y2="360" stroke="rgba(255,255,255,0.03)" stroke-width="1"/><line x1="0" y1="400" x2="1320" y2="400" stroke="rgba(255,255,255,0.03)" stroke-width="1"/><line x1="0" y1="440" x2="1320" y2="440" stroke="rgba(255,255,255,0.03)" stroke-width="1"/><line x1="0" y1="480" x2="1320" y2="480" stroke="rgba(255,255,255,0.03)" stroke-width="1"/><line x1="0" y1="520" x2="1320" y2="520" stroke="rgba(255,255,255,0.03)" stroke-width="1"/><line x1="0" y1="560" x2="1320" y2="560" stroke="rgba(255,255,255,0.03)" stroke-width="1"/><line x1="0" y1="600" x2="1320" y2="600" stroke="rgba(255,255,255,0.03)" stroke-width="1"/><line x1="0" y1="640" x2="1320" y2="640" stroke="rgba(255,255,255,0.03)" stroke-width="1"/><line x1="0" y1="680" x2="1320" y2="680" stroke="rgba(255,255,255,0.03)" stroke-width="1"/><line x1="0" y1="720" x2="1320" y2="720" stroke="rgba(255,255,255,0.03)" stroke-width="1"/><line x1="0" y1="760" x2="1320" y2="760" stroke="rgba(255,255,255,0.03)" stroke-width="1"/><line x1="0" y1="800" x2="1320" y2="800" stroke="rgba(255,255,255,0.03)" stroke-width="1"/><text x="1292" y="40" font-size="10.5" fill="#8a8aa3" text-anchor="end" font-family="'Consolas','Space Grotesk',monospace">Notion DB 2b6427c2 · separate from Mental OS · never mixed</text><rect x="60" y="110" width="250" height="100" rx="10" fill="rgba(255,255,255,0.04)" stroke="#38bdf8" stroke-width="1.6"/>
<text x="185.0" y="136" font-size="14" font-weight="bold" fill="#38bdf8" text-anchor="middle" font-family="'Consolas','Space Grotesk',monospace">NOTION WORKSPACE</text>
<text x="185.0" y="155" font-size="10.5" fill="#8a8aa3" text-anchor="middle" font-family="'Consolas','Space Grotesk',monospace">7 rows · data source</text><rect x="370" y="110" width="250" height="100" rx="10" fill="rgba(255,255,255,0.04)" stroke="#00ff9d" stroke-width="1.6"/>
<text x="495.0" y="136" font-size="14" font-weight="bold" fill="#00ff9d" text-anchor="middle" font-family="'Consolas','Space Grotesk',monospace">RESOURCES FILLED</text>
<text x="495.0" y="155" font-size="10.5" fill="#8a8aa3" text-anchor="middle" font-family="'Consolas','Space Grotesk',monospace">~31 links verified</text><rect x="680" y="110" width="250" height="100" rx="10" fill="rgba(255,255,255,0.04)" stroke="#8b5cf6" stroke-width="1.6"/>
<text x="805.0" y="136" font-size="14" font-weight="bold" fill="#8b5cf6" text-anchor="middle" font-family="'Consolas','Space Grotesk',monospace">42 TASKS REBUILT</text>
<text x="805.0" y="155" font-size="10.5" fill="#8a8aa3" text-anchor="middle" font-family="'Consolas','Space Grotesk',monospace">7 DBs · data_source pattern</text><rect x="990" y="110" width="260" height="100" rx="10" fill="rgba(255,255,255,0.04)" stroke="#fbbf24" stroke-width="1.6"/>
<text x="1120.0" y="136" font-size="14" font-weight="bold" fill="#fbbf24" text-anchor="middle" font-family="'Consolas','Space Grotesk',monospace">MARKET RESEARCH</text>
<text x="1120.0" y="155" font-size="10.5" fill="#8a8aa3" text-anchor="middle" font-family="'Consolas','Space Grotesk',monospace">Mordor · M&amp;M · GVR · ET</text><defs><marker id="m72773" markerWidth="9" markerHeight="9" refX="8" refY="3" orient="auto"><polygon points="0,0 9,3 0,6" fill="#38bdf8"/></marker></defs>
<line x1="310" y1="160" x2="362.0" y2="160.0" stroke="#38bdf8" stroke-width="1.8" marker-end="url(#m72773)"/>
<defs><marker id="m74691" markerWidth="9" markerHeight="9" refX="8" refY="3" orient="auto"><polygon points="0,0 9,3 0,6" fill="#00ff9d"/></marker></defs>
<line x1="620" y1="160" x2="672.0" y2="160.0" stroke="#00ff9d" stroke-width="1.8" marker-end="url(#m74691)"/>
<defs><marker id="m30519" markerWidth="9" markerHeight="9" refX="8" refY="3" orient="auto"><polygon points="0,0 9,3 0,6" fill="#8b5cf6"/></marker></defs>
<line x1="930" y1="160" x2="982.0" y2="160.0" stroke="#8b5cf6" stroke-width="1.8" marker-end="url(#m30519)"/>
<rect x="60" y="290" width="380" height="100" rx="10" fill="rgba(255,255,255,0.04)" stroke="#00ff9d" stroke-width="1.6"/>
<text x="250.0" y="316" font-size="14" font-weight="bold" fill="#00ff9d" text-anchor="middle" font-family="'Consolas','Space Grotesk',monospace">BUSINESS PLAN DRAFT</text>
<text x="250.0" y="335" font-size="10.5" fill="#8a8aa3" text-anchor="middle" font-family="'Consolas','Space Grotesk',monospace">exec · problem · solution · GTM</text><rect x="490" y="290" width="380" height="100" rx="10" fill="rgba(255,255,255,0.04)" stroke="#38bdf8" stroke-width="1.6" filter="url(#glow)"/>
<text x="680.0" y="316" font-size="14" font-weight="bold" fill="#38bdf8" text-anchor="middle" font-family="'Consolas','Space Grotesk',monospace">FINANCIAL PROJECTIONS</text>
<text x="680.0" y="335" font-size="10.5" fill="#8a8aa3" text-anchor="middle" font-family="'Consolas','Space Grotesk',monospace">Rs 80k-1.4L · break-even M4-5</text><rect x="920" y="290" width="330" height="100" rx="10" fill="rgba(255,255,255,0.04)" stroke="#fbbf24" stroke-width="1.6"/>
<text x="1085.0" y="316" font-size="14" font-weight="bold" fill="#fbbf24" text-anchor="middle" font-family="'Consolas','Space Grotesk',monospace">FOUNDER PLAYBOOK PDF</text>
<text x="1085.0" y="335" font-size="10.5" fill="#8a8aa3" text-anchor="middle" font-family="'Consolas','Space Grotesk',monospace">8 pages · branded · desktop</text><defs><marker id="m59894" markerWidth="9" markerHeight="9" refX="8" refY="3" orient="auto"><polygon points="0,0 9,3 0,6" fill="#00ff9d"/></marker></defs>
<line x1="250" y1="210" x2="250.0" y2="282.0" stroke="#00ff9d" stroke-width="1.8" marker-end="url(#m59894)"/>
<defs><marker id="m90374" markerWidth="9" markerHeight="9" refX="8" refY="3" orient="auto"><polygon points="0,0 9,3 0,6" fill="#00ff9d"/></marker></defs>
<line x1="690" y1="210" x2="690.0" y2="282.0" stroke="#00ff9d" stroke-width="1.8" marker-end="url(#m90374)"/>
<defs><marker id="m68775" markerWidth="9" markerHeight="9" refX="8" refY="3" orient="auto"><polygon points="0,0 9,3 0,6" fill="#00ff9d"/></marker></defs>
<line x1="1120" y1="210" x2="1120.0" y2="282.0" stroke="#00ff9d" stroke-width="1.8" marker-end="url(#m68775)"/>
<rect x="60" y="470" width="380" height="100" rx="10" fill="rgba(255,255,255,0.04)" stroke="#8b5cf6" stroke-width="1.6"/>
<text x="250.0" y="496" font-size="14" font-weight="bold" fill="#8b5cf6" text-anchor="middle" font-family="'Consolas','Space Grotesk',monospace">DECISION AGENDA</text>
<text x="250.0" y="515" font-size="10.5" fill="#8a8aa3" text-anchor="middle" font-family="'Consolas','Space Grotesk',monospace">4 decisions · 30 minutes</text><rect x="490" y="470" width="380" height="100" rx="10" fill="rgba(255,255,255,0.04)" stroke="#fbbf24" stroke-width="1.6" filter="url(#glow)"/>
<text x="680.0" y="496" font-size="14" font-weight="bold" fill="#fbbf24" text-anchor="middle" font-family="'Consolas','Space Grotesk',monospace">FATHER MEETING</text>
<text x="680.0" y="515" font-size="10.5" fill="#8a8aa3" text-anchor="middle" font-family="'Consolas','Space Grotesk',monospace">capital · LLP · timing · contacts</text><rect x="920" y="470" width="330" height="100" rx="10" fill="rgba(255,255,255,0.04)" stroke="#38bdf8" stroke-width="1.6"/>
<text x="1085.0" y="496" font-size="14" font-weight="bold" fill="#38bdf8" text-anchor="middle" font-family="'Consolas','Space Grotesk',monospace">20 CUSTOMER INTERVIEWS</text>
<text x="1085.0" y="515" font-size="10.5" fill="#8a8aa3" text-anchor="middle" font-family="'Consolas','Space Grotesk',monospace">pricing validation · next</text><defs><marker id="m58865" markerWidth="9" markerHeight="9" refX="8" refY="3" orient="auto"><polygon points="0,0 9,3 0,6" fill="#00ff9d"/></marker></defs>
<line x1="250" y1="390" x2="250.0" y2="462.0" stroke="#00ff9d" stroke-width="1.8" marker-end="url(#m58865)"/>
<defs><marker id="m19589" markerWidth="9" markerHeight="9" refX="8" refY="3" orient="auto"><polygon points="0,0 9,3 0,6" fill="#00ff9d"/></marker></defs>
<line x1="680" y1="390" x2="680.0" y2="462.0" stroke="#00ff9d" stroke-width="1.8" marker-end="url(#m19589)"/>
<defs><marker id="m37622" markerWidth="9" markerHeight="9" refX="8" refY="3" orient="auto"><polygon points="0,0 9,3 0,6" fill="#00ff9d"/></marker></defs>
<line x1="1085" y1="390" x2="1085.0" y2="462.0" stroke="#00ff9d" stroke-width="1.8" stroke-dasharray="5 4" marker-end="url(#m37622)"/>
<rect x="60" y="650" width="1200" height="100" rx="10" fill="rgba(255,255,255,0.04)" stroke="#00ff9d" stroke-width="1.6" filter="url(#glow)"/>
<text x="660.0" y="676" font-size="14" font-weight="bold" fill="#00ff9d" text-anchor="middle" font-family="'Consolas','Space Grotesk',monospace">INCORPORATION PATH · LLP (Rs 8-12k) → DPIIT + MSME (free) → GST → bank account → GeoSmart India (Dec 1-4, Delhi)</text>
<text x="660.0" y="695" font-size="10.5" fill="#8a8aa3" text-anchor="middle" font-family="'Consolas','Space Grotesk',monospace">capital need Rs 1.5-2.5L · break-even at 2 projects/month · market Rs 1L cr by 2030</text><defs><marker id="m85145" markerWidth="9" markerHeight="9" refX="8" refY="3" orient="auto"><polygon points="0,0 9,3 0,6" fill="#00ff9d"/></marker></defs>
<line x1="660" y1="570" x2="660.0" y2="642.0" stroke="#00ff9d" stroke-width="1.8" marker-end="url(#m85145)"/>
<text x="660.0" y="602.0" font-size="10.5" fill="#00ff9d" text-anchor="middle" font-family="'Consolas','Space Grotesk',monospace">decisions → actions</text></svg>
