<?xml version="1.0" encoding="UTF-8"?>
<svg xmlns="http://www.w3.org/2000/svg" viewBox="0 0 1320 600" width="1320" height="600" style="background:#06060f;font-family:'Consolas','Space Grotesk',monospace">
<defs>
<linearGradient id="gt" x1="0" y1="0" x2="1" y2="0">
  <stop offset="0" stop-color="#00ff9d"/><stop offset="1" stop-color="#38bdf8"/>
</linearGradient>
<filter id="glow"><feGaussianBlur stdDeviation="3" result="b"/><feMerge><feMergeNode in="b"/><feMergeNode in="SourceGraphic"/></feMerge></filter>
</defs>
<text x="28" y="40" font-size="22" font-weight="bold" fill="url(#gt)" font-family="'Consolas','Space Grotesk',monospace">FUNCTION COMPUTE DEPLOYMENT · MANAGED FLOW</text>
<line x1="0" y1="0" x2="0" y2="600" stroke="rgba(255,255,255,0.03)" stroke-width="1"/><line x1="40" y1="0" x2="40" y2="600" stroke="rgba(255,255,255,0.03)" stroke-width="1"/><line x1="80" y1="0" x2="80" y2="600" stroke="rgba(255,255,255,0.03)" stroke-width="1"/><line x1="120" y1="0" x2="120" y2="600" stroke="rgba(255,255,255,0.03)" stroke-width="1"/><line x1="160" y1="0" x2="160" y2="600" stroke="rgba(255,255,255,0.03)" stroke-width="1"/><line x1="200" y1="0" x2="200" y2="600" stroke="rgba(255,255,255,0.03)" stroke-width="1"/><line x1="240" y1="0" x2="240" y2="600" stroke="rgba(255,255,255,0.03)" stroke-width="1"/><line x1="280" y1="0" x2="280" y2="600" stroke="rgba(255,255,255,0.03)" stroke-width="1"/><line x1="320" y1="0" x2="320" y2="600" stroke="rgba(255,255,255,0.03)" stroke-width="1"/><line x1="360" y1="0" x2="360" y2="600" stroke="rgba(255,255,255,0.03)" stroke-width="1"/><line x1="400" y1="0" x2="400" y2="600" stroke="rgba(255,255,255,0.03)" stroke-width="1"/><line x1="440" y1="0" x2="440" y2="600" stroke="rgba(255,255,255,0.03)" stroke-width="1"/><line x1="480" y1="0" x2="480" y2="600" stroke="rgba(255,255,255,0.03)" stroke-width="1"/><line x1="520" y1="0" x2="520" y2="600" stroke="rgba(255,255,255,0.03)" stroke-width="1"/><line x1="560" y1="0" x2="560" y2="600" stroke="rgba(255,255,255,0.03)" stroke-width="1"/><line x1="600" y1="0" x2="600" y2="600" stroke="rgba(255,255,255,0.03)" stroke-width="1"/><line x1="640" y1="0" x2="640" y2="600" stroke="rgba(255,255,255,0.03)" stroke-width="1"/><line x1="680" y1="0" x2="680" y2="600" stroke="rgba(255,255,255,0.03)" stroke-width="1"/><line x1="720" y1="0" x2="720" y2="600" stroke="rgba(255,255,255,0.03)" stroke-width="1"/><line x1="760" y1="0" x2="760" y2="600" stroke="rgba(255,255,255,0.03)" stroke-width="1"/><line x1="800" y1="0" x2="800" y2="600" stroke="rgba(255,255,255,0.03)" stroke-width="1"/><line x1="840" y1="0" x2="840" y2="600" stroke="rgba(255,255,255,0.03)" stroke-width="1"/><line x1="880" y1="0" x2="880" y2="600" stroke="rgba(255,255,255,0.03)" stroke-width="1"/><line x1="920" y1="0" x2="920" y2="600" stroke="rgba(255,255,255,0.03)" stroke-width="1"/><line x1="960" y1="0" x2="960" y2="600" stroke="rgba(255,255,255,0.03)" stroke-width="1"/><line x1="1000" y1="0" x2="1000" y2="600" stroke="rgba(255,255,255,0.03)" stroke-width="1"/><line x1="1040" y1="0" x2="1040" y2="600" stroke="rgba(255,255,255,0.03)" stroke-width="1"/><line x1="1080" y1="0" x2="1080" y2="600" stroke="rgba(255,255,255,0.03)" stroke-width="1"/><line x1="1120" y1="0" x2="1120" y2="600" stroke="rgba(255,255,255,0.03)" stroke-width="1"/><line x1="1160" y1="0" x2="1160" y2="600" stroke="rgba(255,255,255,0.03)" stroke-width="1"/><line x1="1200" y1="0" x2="1200" y2="600" stroke="rgba(255,255,255,0.03)" stroke-width="1"/><line x1="1240" y1="0" x2="1240" y2="600" stroke="rgba(255,255,255,0.03)" stroke-width="1"/><line x1="1280" y1="0" x2="1280" y2="600" stroke="rgba(255,255,255,0.03)" stroke-width="1"/><line x1="0" y1="0" x2="1320" y2="0" stroke="rgba(255,255,255,0.03)" stroke-width="1"/><line x1="0" y1="40" x2="1320" y2="40" stroke="rgba(255,255,255,0.03)" stroke-width="1"/><line x1="0" y1="80" x2="1320" y2="80" stroke="rgba(255,255,255,0.03)" stroke-width="1"/><line x1="0" y1="120" x2="1320" y2="120" stroke="rgba(255,255,255,0.03)" stroke-width="1"/><line x1="0" y1="160" x2="1320" y2="160" stroke="rgba(255,255,255,0.03)" stroke-width="1"/><line x1="0" y1="200" x2="1320" y2="200" stroke="rgba(255,255,255,0.03)" stroke-width="1"/><line x1="0" y1="240" x2="1320" y2="240" stroke="rgba(255,255,255,0.03)" stroke-width="1"/><line x1="0" y1="280" x2="1320" y2="280" stroke="rgba(255,255,255,0.03)" stroke-width="1"/><line x1="0" y1="320" x2="1320" y2="320" stroke="rgba(255,255,255,0.03)" stroke-width="1"/><line x1="0" y1="360" x2="1320" y2="360" stroke="rgba(255,255,255,0.03)" stroke-width="1"/><line x1="0" y1="400" x2="1320" y2="400" stroke="rgba(255,255,255,0.03)" stroke-width="1"/><line x1="0" y1="440" x2="1320" y2="440" stroke="rgba(255,255,255,0.03)" stroke-width="1"/><line x1="0" y1="480" x2="1320" y2="480" stroke="rgba(255,255,255,0.03)" stroke-width="1"/><line x1="0" y1="520" x2="1320" y2="520" stroke="rgba(255,255,255,0.03)" stroke-width="1"/><line x1="0" y1="560" x2="1320" y2="560" stroke="rgba(255,255,255,0.03)" stroke-width="1"/><text x="1292" y="40" font-size="10.5" fill="#8a8aa3" text-anchor="end" font-family="'Consolas','Space Grotesk',monospace">AUTOCLAW_FUNCTION_COMPUTE_WEBSITE_PROTOCOL · agent never calls /functionCompute</text><rect x="60" y="130" width="250" height="100" rx="10" fill="rgba(255,255,255,0.04)" stroke="#00ff9d" stroke-width="1.6" filter="url(#glow)"/>
<text x="185.0" y="156" font-size="14" font-weight="bold" fill="#00ff9d" text-anchor="middle" font-family="'Consolas','Space Grotesk',monospace">website_delivery_start</text>
<text x="185.0" y="175" font-size="10.5" fill="#8a8aa3" text-anchor="middle" font-family="'Consolas','Space Grotesk',monospace">projectId + folderName</text><rect x="370" y="130" width="260" height="100" rx="10" fill="rgba(255,255,255,0.04)" stroke="#38bdf8" stroke-width="1.6"/>
<text x="500.0" y="156" font-size="14" font-weight="bold" fill="#38bdf8" text-anchor="middle" font-family="'Consolas','Space Grotesk',monospace">BUILD IN projects/&lt;id&gt;/</text>
<text x="500.0" y="175" font-size="10.5" fill="#8a8aa3" text-anchor="middle" font-family="'Consolas','Space Grotesk',monospace">index.html + nginx.conf</text><rect x="690" y="130" width="250" height="100" rx="10" fill="rgba(255,255,255,0.04)" stroke="#8b5cf6" stroke-width="1.6"/>
<text x="815.0" y="156" font-size="14" font-weight="bold" fill="#8b5cf6" text-anchor="middle" font-family="'Consolas','Space Grotesk',monospace">projects.json WRITE</text>
<text x="815.0" y="175" font-size="10.5" fill="#8a8aa3" text-anchor="middle" font-family="'Consolas','Space Grotesk',monospace">deploy signal · read+preserve</text><rect x="1000" y="130" width="250" height="100" rx="10" fill="rgba(255,255,255,0.04)" stroke="#fbbf24" stroke-width="1.6"/>
<text x="1125.0" y="156" font-size="14" font-weight="bold" fill="#fbbf24" text-anchor="middle" font-family="'Consolas','Space Grotesk',monospace">MAIN DEPLOYS</text>
<text x="1125.0" y="175" font-size="10.5" fill="#8a8aa3" text-anchor="middle" font-family="'Consolas','Space Grotesk',monospace">nginx static · autoPreview</text><defs><marker id="m97257" markerWidth="9" markerHeight="9" refX="8" refY="3" orient="auto"><polygon points="0,0 9,3 0,6" fill="#00ff9d"/></marker></defs>
<line x1="310" y1="180" x2="362.0" y2="180.0" stroke="#00ff9d" stroke-width="1.8" marker-end="url(#m97257)"/>
<defs><marker id="m29222" markerWidth="9" markerHeight="9" refX="8" refY="3" orient="auto"><polygon points="0,0 9,3 0,6" fill="#38bdf8"/></marker></defs>
<line x1="630" y1="180" x2="682.0" y2="180.0" stroke="#38bdf8" stroke-width="1.8" marker-end="url(#m29222)"/>
<defs><marker id="m61693" markerWidth="9" markerHeight="9" refX="8" refY="3" orient="auto"><polygon points="0,0 9,3 0,6" fill="#8b5cf6"/></marker></defs>
<line x1="940" y1="180" x2="992.0" y2="180.0" stroke="#8b5cf6" stroke-width="1.8" marker-end="url(#m61693)"/>
<rect x="60" y="330" width="520" height="100" rx="10" fill="rgba(255,255,255,0.04)" stroke="#38bdf8" stroke-width="1.6" filter="url(#glow)"/>
<text x="320.0" y="356" font-size="14" font-weight="bold" fill="#38bdf8" text-anchor="middle" font-family="'Consolas','Space Grotesk',monospace">PREVIEW URL</text>
<text x="320.0" y="375" font-size="10.5" fill="#8a8aa3" text-anchor="middle" font-family="'Consolas','Space Grotesk',monospace">system message + auto-opens</text><rect x="640" y="330" width="610" height="100" rx="10" fill="rgba(255,255,255,0.04)" stroke="#fbbf24" stroke-width="1.6" filter="url(#glow)"/>
<text x="945.0" y="356" font-size="14" font-weight="bold" fill="#fbbf24" text-anchor="middle" font-family="'Consolas','Space Grotesk',monospace">HUMAN CLICKS PUBLISH</text>
<text x="945.0" y="375" font-size="10.5" fill="#8a8aa3" text-anchor="middle" font-family="'Consolas','Space Grotesk',monospace">stable URL serves new version</text><defs><marker id="m91848" markerWidth="9" markerHeight="9" refX="8" refY="3" orient="auto"><polygon points="0,0 9,3 0,6" fill="#00ff9d"/></marker></defs>
<line x1="310" y1="230" x2="310.0" y2="322.0" stroke="#00ff9d" stroke-width="1.8" marker-end="url(#m91848)"/>
<defs><marker id="m72185" markerWidth="9" markerHeight="9" refX="8" refY="3" orient="auto"><polygon points="0,0 9,3 0,6" fill="#fbbf24"/></marker></defs>
<line x1="990" y1="230" x2="990.0" y2="322.0" stroke="#fbbf24" stroke-width="1.8" marker-end="url(#m72185)"/>
<defs><marker id="m5207" markerWidth="9" markerHeight="9" refX="8" refY="3" orient="auto"><polygon points="0,0 9,3 0,6" fill="#00ff9d"/></marker></defs>
<line x1="580" y1="380" x2="632.0" y2="380.0" stroke="#00ff9d" stroke-width="1.8" marker-end="url(#m5207)"/>
<rect x="60" y="480" width="360" height="40" rx="14" fill="rgba(255,255,255,0.05)" stroke="#f87171" stroke-width="1.2"/>
<text x="240.0" y="504.0" font-size="11" fill="#f87171" text-anchor="middle" font-family="'Consolas','Space Grotesk',monospace">no JWT read · no API calls by agent</text><rect x="480" y="480" width="360" height="40" rx="14" fill="rgba(255,255,255,0.05)" stroke="#38bdf8" stroke-width="1.2"/>
<text x="660.0" y="504.0" font-size="11" fill="#38bdf8" text-anchor="middle" font-family="'Consolas','Space Grotesk',monospace">entryFile = index.html</text><rect x="900" y="480" width="350" height="40" rx="14" fill="rgba(255,255,255,0.05)" stroke="#00ff9d" stroke-width="1.2"/>
<text x="1075.0" y="504.0" font-size="11" fill="#00ff9d" text-anchor="middle" font-family="'Consolas','Space Grotesk',monospace">capture page: deployed, URL pending</text></svg>
